<svg width="28" height="28" viewBox="0 0 28 28" fill="none" xmlns="http://www.w3.org/2000/svg">
<path d="M26.3516 13.4816C26.4616 20.4816 20.8716 26.2416 13.8716 26.3516C6.8716 26.4616 1.1116 20.8816 1.0016 13.8816C0.891596 6.8716 6.4816 1.1116 13.4816 1.0016C20.4816 0.891596 26.2416 6.4816 26.3516 13.4816Z" fill="#FF4B3A" stroke="#303051" stroke-width="1.5"/>
<path d="M20.1845 8.70636C19.4189 7.94972 18.3859 7.52539 17.3095 7.52539C16.2331 7.52539 15.2001 7.94972 14.4345 8.70636L14.002 9.12886L13.577 8.70636C12.8036 7.99968 11.7874 7.61849 10.74 7.6421C9.69257 7.66572 8.69461 8.09233 7.9538 8.83314C7.21298 9.57396 6.78637 10.5719 6.76275 11.6193C6.73914 12.6667 7.12033 13.6829 7.82701 14.4564L13.737 20.3814C13.8076 20.451 13.9028 20.49 14.002 20.49C14.1012 20.49 14.1964 20.451 14.267 20.3814L20.1845 14.4639C20.9434 13.6979 21.3692 12.6633 21.3692 11.5851C21.3692 10.5069 20.9434 9.47227 20.1845 8.70636Z" fill="white"/>
</svg>
